<?xml version="1.0" encoding="UTF-8" standalone="no"?>
<!-- Created with Inkscape (http://www.inkscape.org/) -->

<svg
   xmlns:dc="http://purl.org/dc/elements/1.1/"
   xmlns:cc="http://creativecommons.org/ns#"
   xmlns:rdf="http://www.w3.org/1999/02/22-rdf-syntax-ns#"
   xmlns:svg="http://www.w3.org/2000/svg"
   xmlns="http://www.w3.org/2000/svg"
   xmlns:sodipodi="http://sodipodi.sourceforge.net/DTD/sodipodi-0.dtd"
   xmlns:inkscape="http://www.inkscape.org/namespaces/inkscape"
   width="203.96474mm"
   height="66.222809mm"
   viewBox="0 0 203.96474 66.222809"
   version="1.1"
   id="svg8"
   inkscape:version="0.92.4 (5da689c313, 2019-01-14)"
   sodipodi:docname="logo.svg">
  <defs
     id="defs2" />
  <sodipodi:namedview
     id="base"
     pagecolor="#ffffff"
     bordercolor="#666666"
     borderopacity="1.0"
     inkscape:pageopacity="0.0"
     inkscape:pageshadow="2"
     inkscape:zoom="1.1213519"
     inkscape:cx="331.00632"
     inkscape:cy="125.638"
     inkscape:document-units="mm"
     inkscape:current-layer="layer1"
     showgrid="false"
     inkscape:window-width="1920"
     inkscape:window-height="1017"
     inkscape:window-x="-8"
     inkscape:window-y="-8"
     inkscape:window-maximized="1"
     fit-margin-top="0"
     fit-margin-left="0"
     fit-margin-right="0"
     fit-margin-bottom="0" />
  <metadata
     id="metadata5">
    <rdf:RDF>
      <cc:Work
         rdf:about="">
        <dc:format>image/svg+xml</dc:format>
        <dc:type
           rdf:resource="http://purl.org/dc/dcmitype/StillImage" />
        <dc:title></dc:title>
      </cc:Work>
    </rdf:RDF>
  </metadata>
  <g
     inkscape:groupmode="layer"
     id="layer2"
     inkscape:label="Raw Text"
     style="display:none"
     transform="translate(-1.8095647,-182.57544)">
    <text
       xml:space="preserve"
       style="font-style:normal;font-weight:normal;font-size:77.50881195px;line-height:1.25;font-family:sans-serif;letter-spacing:0px;word-spacing:0px;display:inline;fill:#000000;fill-opacity:1;stroke:none;stroke-width:4.84430075"
       x="19.999067"
       y="173.74829"
       id="text3856"><tspan
         sodipodi:role="line"
         id="tspan3854"
         x="19.999067"
         y="173.74829"
         style="stroke-width:4.84430075">Josh</tspan></text>
  </g>
  <g
     inkscape:groupmode="layer"
     id="layer3"
     inkscape:label="Braces"
     style="display:inline"
     transform="translate(-1.8095647,-182.57544)">
    <text
       xml:space="preserve"
       style="font-style:normal;font-weight:normal;font-size:47.17210388px;line-height:1.25;font-family:sans-serif;letter-spacing:0px;word-spacing:0px;display:inline;fill:#000000;fill-opacity:1;stroke:none;stroke-width:2.94825649"
       x="0.082070708"
       y="227.43381"
       id="text3850"><tspan
         sodipodi:role="line"
         id="tspan3848"
         x="0.082070708"
         y="227.43381"
         style="font-style:normal;font-variant:normal;font-weight:normal;font-stretch:normal;font-family:'Century Gothic';-inkscape-font-specification:'Century Gothic';stroke-width:2.94825649">{</tspan></text>
    <text
       id="text3860"
       y="227.43381"
       x="-207.5018"
       style="font-style:normal;font-weight:normal;font-size:47.17210388px;line-height:1.25;font-family:sans-serif;letter-spacing:0px;word-spacing:0px;display:inline;fill:#000000;fill-opacity:1;stroke:none;stroke-width:2.94825649"
       xml:space="preserve"
       transform="scale(-1,1)"><tspan
         style="font-style:normal;font-variant:normal;font-weight:normal;font-stretch:normal;font-family:'Century Gothic';-inkscape-font-specification:'Century Gothic';stroke-width:2.94825649"
         y="227.43381"
         x="-207.5018"
         id="tspan3858"
         sodipodi:role="line">{</tspan></text>
  </g>
  <g
     inkscape:groupmode="layer"
     id="layer4"
     inkscape:label="Text"
     style="display:inline"
     transform="translate(-1.8095647,-182.57544)">
    <path
       style="display:inline;fill:#000000;fill-opacity:1;stroke:none;stroke-width:4.38031292;stroke-linecap:butt;stroke-linejoin:miter;stroke-miterlimit:4;stroke-dasharray:8.7606257, 8.7606257;stroke-dashoffset:0;stroke-opacity:1"
       d="m 28.481474,193.47745 h 12.438845 v 35.8153 c 0,0 0,7.93513 -6.00496,8.57852 -6.004964,0.64338 -13.082233,-1.28677 -13.082233,-1.28677 v 6.64836 c 0,0 13.296705,3.64587 19.730591,-0.64338 6.433885,-4.28926 6.648348,-10.50872 6.648348,-10.50872 V 187.258 H 28.267011 Z"
       id="path3862"
       inkscape:connector-curvature="0" />
    <ellipse
       style="display:inline;fill:none;fill-opacity:1;stroke:#010000;stroke-width:6.19598675;stroke-miterlimit:4;stroke-dasharray:none;stroke-dashoffset:0;stroke-opacity:1;paint-order:normal"
       id="path5315"
       cx="79.094734"
       cy="223.06235"
       rx="17.585962"
       ry="20.802904" />
    <path
       sodipodi:nodetypes="cccccccscccccccccccccccccc"
       inkscape:connector-curvature="0"
       id="path5328"
       d="m 137.85982,203.86788 c 0,0 -8.04203,-3.30194 -14.47625,-3.21696 -7.10408,0.0935 -11.48986,3.59608 -11.48986,3.59608 0,0 -5.29186,3.64206 -5.34548,8.1994 -0.0593,5.04062 1.7157,7.18448 1.7157,7.18448 0,0 2.89526,3.91396 7.72067,5.0399 4.85892,1.13371 12.33162,3.00249 12.33162,3.00249 0,0 3.46424,1.51623 3.7531,4.28926 0.26809,2.57353 -1.60847,4.69651 -1.60847,4.69651 0,0 -1.39401,2.05907 -5.89773,2.16628 -4.50372,0.10713 -7.86825,-0.78101 -7.86825,-0.78101 0,0 -4.20824,-1.23207 -6.48296,-2.44526 -1.9298,-1.02921 -3.31731,-2.04726 -3.31731,-2.04726 v 8.17003 c 0,0 6.97218,3.34974 13.13799,3.32296 6.16581,-0.0272 7.37216,-0.48256 7.37216,-0.48256 0,0 6.70197,-1.44764 9.59722,-5.20073 2.89525,-3.75309 2.57356,-7.77431 2.57356,-7.77431 0,0 0.21447,-4.02117 -2.25187,-6.75557 -2.46632,-2.73441 -7.77427,-4.182 -7.77427,-4.182 0,0 -10.56699,-2.27617 -10.99123,-2.3591 -2.19824,-0.4285 -3.91697,-1.71504 -4.45011,-3.32418 -0.58536,-1.76675 -0.4913,-3.39681 0.48254,-4.87904 0.94809,-1.44296 3.32418,-3.64587 9.16829,-3.37779 5.84412,0.26827 14.10094,6.00498 14.10094,6.00498 z"
       style="display:inline;fill:#000000;fill-opacity:1;stroke:none;stroke-width:1.20099247px;stroke-linecap:butt;stroke-linejoin:miter;stroke-opacity:1" />
    <path
       style="display:inline;fill:#000000;fill-opacity:1;stroke:none;stroke-width:1.20099247px;stroke-linecap:butt;stroke-linejoin:miter;stroke-opacity:1"
       d="m 149.3614,184.99256 v 59.16614 h 7.57327 v -22.31899 c 0,0 -0.42628,-10.20894 12.2119,-9.98725 9.03946,0.15842 8.99325,8.85127 8.99325,8.85127 v 23.45497 h 7.38395 v -27.80959 c 0,0 -1.08524,-12.11726 -15.47787,-12.11726 -9.66161,0 -12.73256,3.92866 -12.73256,3.92866 v -23.16795 z"
       id="path5335"
       inkscape:connector-curvature="0"
       sodipodi:nodetypes="cccccccccsccc" />
  </g>
  <g
     inkscape:label="Text Stroke"
     inkscape:groupmode="layer"
     id="layer1"
     style="display:inline"
     transform="translate(-1.8095647,-182.57544)">
    <ellipse
       ry="23.284483"
       rx="19.68379"
       cy="223.06235"
       cx="79.094734"
       id="ellipse5317"
       style="display:inline;fill:none;fill-opacity:1;stroke:#ff005f;stroke-width:4.90284014;stroke-miterlimit:4;stroke-dasharray:9.80568015, 9.80568015;stroke-dashoffset:0;stroke-opacity:1;paint-order:normal" />
    <path
       inkscape:connector-curvature="0"
       id="path5319"
       d="m 28.481474,193.46649 h 12.438845 v 35.8153 c 0,0 0,7.93513 -6.00496,8.57852 -6.004964,0.64338 -13.082233,-1.28677 -13.082233,-1.28677 v 6.64836 c 0,0 13.296705,3.64587 19.730591,-0.64338 6.433885,-4.28926 6.648348,-10.50872 6.648348,-10.50872 V 187.24704 H 28.267011 Z"
       style="display:inline;fill:none;fill-opacity:1;stroke:#ff0800;stroke-width:4.38031292;stroke-linecap:butt;stroke-linejoin:miter;stroke-miterlimit:4;stroke-dasharray:8.76062543, 8.76062543;stroke-dashoffset:0;stroke-opacity:1" />
    <path
       style="display:inline;fill:none;fill-opacity:1;stroke:#ff00f0;stroke-width:4.83423138;stroke-linecap:butt;stroke-linejoin:miter;stroke-miterlimit:4;stroke-dasharray:9.66846256, 9.66846256;stroke-dashoffset:0;stroke-opacity:1"
       d="m 137.85757,203.86794 c 0,0 -8.04203,-3.30194 -14.47625,-3.21696 -7.10408,0.0935 -11.48986,3.59608 -11.48986,3.59608 0,0 -5.29186,3.64206 -5.34548,8.1994 -0.0593,5.04062 1.7157,7.18448 1.7157,7.18448 0,0 2.89526,3.91396 7.72067,5.0399 4.85892,1.13371 12.33162,3.00249 12.33162,3.00249 0,0 3.46424,1.51623 3.7531,4.28926 0.26809,2.57353 -1.60847,4.69651 -1.60847,4.69651 0,0 -1.39401,2.05907 -5.89773,2.16628 -4.50372,0.10713 -7.86825,-0.78101 -7.86825,-0.78101 0,0 -4.20824,-1.23207 -6.48296,-2.44526 -1.9298,-1.02921 -3.31731,-2.04726 -3.31731,-2.04726 v 8.17003 c 0,0 6.97218,3.34974 13.13799,3.32296 6.16581,-0.0272 7.37216,-0.48256 7.37216,-0.48256 0,0 6.70197,-1.44764 9.59722,-5.20073 2.89525,-3.75309 2.57356,-7.77431 2.57356,-7.77431 0,0 0.21447,-4.02117 -2.25187,-6.75557 -2.46632,-2.73441 -7.77427,-4.182 -7.77427,-4.182 0,0 -10.56699,-2.27617 -10.99123,-2.3591 -2.19824,-0.4285 -3.91697,-1.71504 -4.45011,-3.32418 -0.58536,-1.76675 -0.4913,-3.39681 0.48254,-4.87904 0.94809,-1.44296 3.32418,-3.64587 9.16829,-3.37779 5.84412,0.26827 14.10094,6.00498 14.10094,6.00498 z"
       id="path5326"
       inkscape:connector-curvature="0"
       sodipodi:nodetypes="cccccccscccccccccccccccccc" />
    <path
       sodipodi:nodetypes="cccccccccsccc"
       inkscape:connector-curvature="0"
       id="path5340"
       d="m 149.3614,184.99256 v 59.16614 h 7.57327 v -22.31899 c 0,0 -0.42628,-10.20894 12.2119,-9.98725 9.03946,0.15842 8.99325,8.85127 8.99325,8.85127 v 23.45497 h 7.38395 v -27.80959 c 0,0 -1.08524,-12.11726 -15.47787,-12.11726 -9.66161,0 -12.73256,3.92866 -12.73256,3.92866 v -23.16795 z"
       style="display:inline;fill:none;fill-opacity:1;stroke:#0018ff;stroke-width:4.83423138;stroke-linecap:butt;stroke-linejoin:miter;stroke-miterlimit:4;stroke-dasharray:9.66846256, 9.66846256;stroke-dashoffset:0;stroke-opacity:1" />
  </g>
</svg>
